{"title":"The.Martian.2015.HD-TS.XVID.AC3.HQ.Hive-CM8","uid":12544389,"size":2128757925,"categoryP":"video","categoryS":"movies","magnet":"?xt=urn:btih:620a6b9acd503031cb27a778f336dc8fcf0fada4&amp;dn=The.Martian.2015.HD-TS.XVID.AC3.HQ.Hive-CM8&amp;tr=udp%3A%2F%2Ftracker.leechers-paradise.org%3A6969&amp;tr=udp%3A%2F%2Fzer0day.ch%3A1337&amp;tr=udp%3A%2F%2Fopen.demonii.com%3A1337&amp;tr=udp%3A%2F%2Ftracker.coppersurfer.tk%3A6969&amp;tr=udp%3A%2F%2Fexodus.desync.com%3A6969","seeders":0,"leechers":1,"uploader":"makintos13","files":3,"time":1444446185,"description":"screens:\r\n \nhttp://imgmak.com/nM\r\n \nhttp://imgmak.com/nO\r\n \nhttp://imgmak.com/nP\r\n \nhttp://imgmak.com/nY\r\n \nhttp://imgmak.com/n0\r\n \nhttp://imgmak.com/nA\r\n \nhttp://imgmak.com/nD\r\n\r\n\r\nCM8 Doing It Right The First Time \r\n\r\nSources:\r\n\r\nVideo: Vip Internal thx m8\r\nAudio: Sweet Direct Line Big Thx to S4NDM4N\r\n\r\nNotes:\r\n\r\nfinally here comes what you were waiting for, a great blockbuster movie with perfect audio.\r\ndidnt have any watermarks, no flicker,no movement,no focus problems, no jerky frames, unlike the latino one thats out\r\nyeah and its totally complete too, perfect as it can be.\r\nkept this new vid internal till i have line, this movie deserves only the best, and now here to grab for everyone.\r\njump on it!\r\n\r\nEncode:\r\n\r\nvideo was already nice to begin with, fixed brightness,contrast,rgb and added sharpness\r\n\r\nAudio Sweet Line from S4NDM4N lipsynced to my video\r\n\r\nwill do me till retail \r\n\r\nenjoy\r\n\r\nVideo: 720x304 @bitrate 1800 2pass\r\nAudio: English AC3 2.0 Direct Stereo Line\r\nSample: yes included\r\n\r\nGeneral\r\nComplete name                  : The.Martian.2015.HD-TS.XVID.AC3.HQ.Hive-CM8.avi\r\nFormat                         : AVI\r\nFormat/Info                    : Audio Video Interleave\r\nFile size                      : 1.96 GiB\r\nDuration                       : 2h 16mn\r\nOverall bit rate               : 2 067 Kbps\r\nWriting application            : Nandub v1.0rc2\r\nWriting library                : Nandub build 1853/release\r\n\r\nVideo\r\nID                             : 0\r\nFormat                         : MPEG-4 Visual\r\nFormat profile                 : Advanced   \r\nFormat settings, BVOP          : 2\r\nFormat settings, QPel          : Yes\r\nFormat settings, GMC           : No warppoints\r\nFormat settings, Matrix        : Default (H.263)\r\nMuxing mode                    : Packed bitstream\r\nCodec ID                       : XVID\r\nCodec ID/Hint                  : XviD\r\nDuration                       : 2h 16mn\r\nBit rate                       : 1 799 Kbps\r\nWidth                          : 720 pixels\r\nHeight                         : 304 pixels\r\nDisplay aspect ratio           : 2.35:1\r\nFrame rate                     : 29.970 fps\r\nColor space                    : YUV\r\nChroma subsampling             : 4:2:0\r\nBit depth                      : 8 bits\r\nScan type                      : Progressive\r\nCompression mode               : Lossy\r\nBits/(Pixel*Frame)             : 0.274\r\nStream size                    : 1.71 GiB (87%)\r\nWriting library                : XviD 1.2.1 (UTC 2008-12-04)\r\n\r\nAudio\r\nID                             : 1\r\nFormat                         : AC-3\r\nFormat/Info                    : Audio Coding 3\r\nMode extension                 : CM (complete main)\r\nFormat settings, Endianness    : Big\r\nCodec ID                       : 2000\r\nDuration                       : 2h 16mn\r\nBit rate mode                  : Constant\r\nBit rate                       : 256 Kbps\r\nChannel(s)                     : 2 channels\r\nChannel positions              : Front: L R\r\nSampling rate                  : 48.0 KHz\r\nBit depth                      : 16 bits\r\nCompression mode               : Lossy\r\nStream size                    : 249 MiB (12%)\r\nAlignment                      : Split accross interleaves\r\nInterleave, duration           : 33 ms (1.00 video frame)\r\nInterleave, preload duration   : 500 ms","torrent":{"xt":"urn:btih:620a6b9acd503031cb27a778f336dc8fcf0fada4","amp;dn":"The.Martian.2015.HD-TS.XVID.AC3.HQ.Hive-CM8","amp;tr":["udp%3A%2F%2Ftracker.leechers-paradise.org%3A6969","udp%3A%2F%2Fzer0day.ch%3A1337","udp%3A%2F%2Fopen.demonii.com%3A1337","udp%3A%2F%2Ftracker.coppersurfer.tk%3A6969","udp%3A%2F%2Fexodus.desync.com%3A6969"],"infoHash":"620a6b9acd503031cb27a778f336dc8fcf0fada4","infoHashBuffer":{"type":"Buffer","data":[98,10,107,154,205,80,48,49,203,39,167,120,243,54,220,143,207,15,173,164]},"announce":[],"urlList":[]}}